<svg xmlns="http://www.w3.org/2000/svg" viewBox="0 0 640 960" preserveAspectRatio="xMidYMid slice"><defs><linearGradient id="sky" x1="0" y1="0" x2="0" y2="1"><stop offset="0" stop-color="#8ED2F0"/><stop offset="1" stop-color="#F3F6DC"/></linearGradient><radialGradient id="glow"><stop offset="0" stop-color="#FFF3C4" stop-opacity=".95"/><stop offset="1" stop-color="#FFF3C4" stop-opacity="0"/></radialGradient><linearGradient id="haze" x1="0" y1="0" x2="0" y2="1"><stop offset="0" stop-color="#FFFFFF" stop-opacity="0"/><stop offset="0.45" stop-color="#FFFFFF" stop-opacity="0.34"/><stop offset="1" stop-color="#FFFFFF" stop-opacity="0"/></linearGradient></defs><rect width="640" height="960" fill="url(#sky)"/><circle cx="500" cy="120" r="114" fill="url(#glow)"/><circle cx="500" cy="120" r="44" fill="#FFE9A8"/><g opacity=".8" transform="translate(40,40) scale(1.19)"><ellipse cx="0" cy="0" rx="38" ry="17" fill="#fff"/><ellipse cx="30" cy="5" rx="28" ry="14" fill="#fff"/><ellipse cx="-28" cy="6" rx="24" ry="12" fill="#fff"/></g><g opacity=".8" transform="translate(167,80) scale(1.02)"><ellipse cx="0" cy="0" rx="38" ry="17" fill="#fff"/><ellipse cx="30" cy="5" rx="28" ry="14" fill="#fff"/><ellipse cx="-28" cy="6" rx="24" ry="12" fill="#fff"/></g><g opacity=".8" transform="translate(255,120) scale(1.29)"><ellipse cx="0" cy="0" rx="38" ry="17" fill="#fff"/><ellipse cx="30" cy="5" rx="28" ry="14" fill="#fff"/><ellipse cx="-28" cy="6" rx="24" ry="12" fill="#fff"/></g><g opacity=".8" transform="translate(375,40) scale(1.05)"><ellipse cx="0" cy="0" rx="38" ry="17" fill="#fff"/><ellipse cx="30" cy="5" rx="28" ry="14" fill="#fff"/><ellipse cx="-28" cy="6" rx="24" ry="12" fill="#fff"/></g><g opacity=".8" transform="translate(483,80) scale(1.03)"><ellipse cx="0" cy="0" rx="38" ry="17" fill="#fff"/><ellipse cx="30" cy="5" rx="28" ry="14" fill="#fff"/><ellipse cx="-28" cy="6" rx="24" ry="12" fill="#fff"/></g><g opacity=".8" transform="translate(584,120) scale(1.24)"><ellipse cx="0" cy="0" rx="38" ry="17" fill="#fff"/><ellipse cx="30" cy="5" rx="28" ry="14" fill="#fff"/><ellipse cx="-28" cy="6" rx="24" ry="12" fill="#fff"/></g><polygon points="0,390 0,342 40,264 80,257 120,375 160,311 200,252 240,385 280,239 320,287 360,358 400,274 440,273 480,334 520,257 560,309 600,312 640,277 640,390" fill="#7FA48D" opacity="0.70"/><polygon points="0,450 0,411 40,394 80,378 120,418 160,402 200,359 240,437 280,391 320,362 360,445 400,388 440,380 480,427 520,359 560,375 600,423 640,370 640,450" fill="#4F7A5C" opacity="1.00"/><rect x="0" y="450" width="640" height="510" fill="#D9C86A"/><path d="M0 450 q80 -16 160 0 q80 16 160 0 q80 -16 160 0 q80 16 160 0 L640 476 L0 476 Z" fill="#E7DA84"/><path d="M0 470 q80 -10 160 0 q80 10 160 0 q80 -10 160 0 q80 10 160 0" stroke="#B9A94C" stroke-width="3" fill="none" opacity=".7"/><path d="M0 504 q80 -10 160 0 q80 10 160 0 q80 -10 160 0 q80 10 160 0" stroke="#B9A94C" stroke-width="3" fill="none" opacity=".7"/><path d="M0 538 q80 -10 160 0 q80 10 160 0 q80 -10 160 0 q80 10 160 0" stroke="#B9A94C" stroke-width="3" fill="none" opacity=".7"/><path d="M0 572 q80 -10 160 0 q80 10 160 0 q80 -10 160 0 q80 10 160 0" stroke="#B9A94C" stroke-width="3" fill="none" opacity=".7"/><path d="M0 606 q80 -10 160 0 q80 10 160 0 q80 -10 160 0 q80 10 160 0" stroke="#B9A94C" stroke-width="3" fill="none" opacity=".7"/><path d="M0 640 q80 -10 160 0 q80 10 160 0 q80 -10 160 0 q80 10 160 0" stroke="#B9A94C" stroke-width="3" fill="none" opacity=".7"/><path d="M0 674 q80 -10 160 0 q80 10 160 0 q80 -10 160 0 q80 10 160 0" stroke="#B9A94C" stroke-width="3" fill="none" opacity=".7"/><path d="M0 708 q80 -10 160 0 q80 10 160 0 q80 -10 160 0 q80 10 160 0" stroke="#B9A94C" stroke-width="3" fill="none" opacity=".7"/><path d="M0 742 q80 -10 160 0 q80 10 160 0 q80 -10 160 0 q80 10 160 0" stroke="#B9A94C" stroke-width="3" fill="none" opacity=".7"/><path d="M0 776 q80 -10 160 0 q80 10 160 0 q80 -10 160 0 q80 10 160 0" stroke="#B9A94C" stroke-width="3" fill="none" opacity=".7"/><path d="M0 810 q80 -10 160 0 q80 10 160 0 q80 -10 160 0 q80 10 160 0" stroke="#B9A94C" stroke-width="3" fill="none" opacity=".7"/><path d="M0 844 q80 -10 160 0 q80 10 160 0 q80 -10 160 0 q80 10 160 0" stroke="#B9A94C" stroke-width="3" fill="none" opacity=".7"/><path d="M0 878 q80 -10 160 0 q80 10 160 0 q80 -10 160 0 q80 10 160 0" stroke="#B9A94C" stroke-width="3" fill="none" opacity=".7"/><path d="M0 912 q80 -10 160 0 q80 10 160 0 q80 -10 160 0 q80 10 160 0" stroke="#B9A94C" stroke-width="3" fill="none" opacity=".7"/><rect x="0" y="150" width="640" height="660" fill="url(#haze)"/><!-- 花東縱谷稻浪 | STAGE 07 · 第三式　FeCl₃ 入水 --></svg>