<svg xmlns="http://www.w3.org/2000/svg" viewBox="0 0 640 480" preserveAspectRatio="xMidYMid slice">
<defs>
<linearGradient id="sky" x1="0" y1="0" x2="0" y2="1">
<stop offset="0" stop-color="#9AD6EE"/><stop offset="1" stop-color="#E6F3FA"/>
</linearGradient>
<radialGradient id="glow"><stop offset="0" stop-color="#FFF3C4" stop-opacity=".95"/><stop offset="1" stop-color="#FFF3C4" stop-opacity="0"/></radialGradient>
</defs>
<rect width="640" height="480" fill="url(#sky)"/>
<circle cx="520" cy="78" r="104" fill="url(#glow)"/>
<circle cx="520" cy="78" r="40" fill="#FFE9A8"/>
<g opacity=".82" transform="translate(33,40) scale(0.83)">
<ellipse cx="0" cy="0" rx="34" ry="16" fill="#fff"/><ellipse cx="26" cy="4" rx="26" ry="13" fill="#fff"/><ellipse cx="-24" cy="5" rx="22" ry="11" fill="#fff"/>
</g>
<g opacity=".82" transform="translate(181,74) scale(0.79)">
<ellipse cx="0" cy="0" rx="34" ry="16" fill="#fff"/><ellipse cx="26" cy="4" rx="26" ry="13" fill="#fff"/><ellipse cx="-24" cy="5" rx="22" ry="11" fill="#fff"/>
</g>
<g opacity=".82" transform="translate(311,108) scale(0.95)">
<ellipse cx="0" cy="0" rx="34" ry="16" fill="#fff"/><ellipse cx="26" cy="4" rx="26" ry="13" fill="#fff"/><ellipse cx="-24" cy="5" rx="22" ry="11" fill="#fff"/>
</g>
<g opacity=".82" transform="translate(427,40) scale(1.03)">
<ellipse cx="0" cy="0" rx="34" ry="16" fill="#fff"/><ellipse cx="26" cy="4" rx="26" ry="13" fill="#fff"/><ellipse cx="-24" cy="5" rx="22" ry="11" fill="#fff"/>
</g>
<g opacity=".82" transform="translate(561,74) scale(0.99)">
<ellipse cx="0" cy="0" rx="34" ry="16" fill="#fff"/><ellipse cx="26" cy="4" rx="26" ry="13" fill="#fff"/><ellipse cx="-24" cy="5" rx="22" ry="11" fill="#fff"/>
</g>
<polygon points="0,260 0,164 36,241 71,174 107,155 142,257 178,158 213,204 249,248 284,150 320,187 356,227 391,189 427,205 462,225 498,165 533,214 569,222 604,183 640,234 640,260" fill="#57826F"/>
<rect x="0" y="300" width="640" height="180" fill="#CFC9B8"/>
<path d="M0 300 q160-14 320 0 t320 0 v10 h-640z" fill="#B9B3A0"/>
<rect x="60" y="190" width="170" height="110" fill="#EDEFEC" stroke="#8E9BA4" stroke-width="2"/>
<polygon points="52,190 145,164 238,190" fill="#64748B"/>
<rect x="70" y="202" width="18" height="16" rx="3" fill="#9FD4E8" stroke="#5E7A88"/>
<rect x="104" y="202" width="18" height="16" rx="3" fill="#9FD4E8" stroke="#5E7A88"/>
<rect x="138" y="202" width="18" height="16" rx="3" fill="#9FD4E8" stroke="#5E7A88"/>
<rect x="172" y="202" width="18" height="16" rx="3" fill="#9FD4E8" stroke="#5E7A88"/>
<rect x="206" y="202" width="18" height="16" rx="3" fill="#9FD4E8" stroke="#5E7A88"/>
<rect x="70" y="236" width="18" height="16" rx="3" fill="#9FD4E8" stroke="#5E7A88"/>
<rect x="104" y="236" width="18" height="16" rx="3" fill="#9FD4E8" stroke="#5E7A88"/>
<rect x="138" y="236" width="18" height="16" rx="3" fill="#9FD4E8" stroke="#5E7A88"/>
<rect x="172" y="236" width="18" height="16" rx="3" fill="#9FD4E8" stroke="#5E7A88"/>
<rect x="206" y="236" width="18" height="16" rx="3" fill="#9FD4E8" stroke="#5E7A88"/>
<rect x="70" y="270" width="18" height="16" rx="3" fill="#9FD4E8" stroke="#5E7A88"/>
<rect x="104" y="270" width="18" height="16" rx="3" fill="#9FD4E8" stroke="#5E7A88"/>
<rect x="138" y="270" width="18" height="16" rx="3" fill="#9FD4E8" stroke="#5E7A88"/>
<rect x="172" y="270" width="18" height="16" rx="3" fill="#9FD4E8" stroke="#5E7A88"/>
<rect x="206" y="270" width="18" height="16" rx="3" fill="#9FD4E8" stroke="#5E7A88"/>
<rect x="250" y="215" width="130" height="85" fill="#E4E8E6" stroke="#8E9BA4" stroke-width="2"/>
<polygon points="242,215 315,189 388,215" fill="#1C7293"/>
<rect x="260" y="227" width="18" height="16" rx="3" fill="#9FD4E8" stroke="#5E7A88"/>
<rect x="294" y="227" width="18" height="16" rx="3" fill="#9FD4E8" stroke="#5E7A88"/>
<rect x="328" y="227" width="18" height="16" rx="3" fill="#9FD4E8" stroke="#5E7A88"/>
<rect x="260" y="261" width="18" height="16" rx="3" fill="#9FD4E8" stroke="#5E7A88"/>
<rect x="294" y="261" width="18" height="16" rx="3" fill="#9FD4E8" stroke="#5E7A88"/>
<rect x="328" y="261" width="18" height="16" rx="3" fill="#9FD4E8" stroke="#5E7A88"/>
<rect x="60" y="176" width="34" height="16" fill="#8E9BA4"/>
<rect x="72" y="120" width="14" height="60" fill="#9AA6AE"/>
<ellipse cx="79" cy="112" rx="26" ry="12" fill="#E9EDEF" opacity=".8"/>
<rect x="400" y="250" width="200" height="16" rx="8" fill="#7E8A92"/>
<rect x="470" y="266" width="12" height="40" fill="#5E6A72"/>
<polygon points="597,342 590,343 588,338 591,332 599,335 604,339" fill="#8E8F86" stroke="#3F4C45" stroke-width="1.5"/>
<polygon points="210,385 228,386 232,400 220,407 206,410 194,403 198,392" fill="#6E7269" stroke="#3F4C45" stroke-width="1.5"/>
<polygon points="101,393 91,400 79,397 71,390 73,378 90,375 105,382" fill="#A6A79C" stroke="#3F4C45" stroke-width="1.5"/>
<polygon points="333,362 324,363 321,357 319,350 330,349 338,352 339,358" fill="#8E8F86" stroke="#3F4C45" stroke-width="1.5"/>
<polygon points="410,443 406,436 415,431 426,434 428,443 418,449" fill="#6E7269" stroke="#3F4C45" stroke-width="1.5"/>
<polygon points="265,335 266,323 284,322 289,334 278,341" fill="#A6A79C" stroke="#3F4C45" stroke-width="1.5"/>
<polygon points="72,440 67,435 73,430 81,430 85,435 85,439 79,444" fill="#8E8F86" stroke="#3F4C45" stroke-width="1.5"/>
<polygon points="455,409 455,401 467,400 473,406 466,411" fill="#6E7269" stroke="#3F4C45" stroke-width="1.5"/>
<polygon points="347,385 351,396 349,409 329,413 319,401 313,389 330,384" fill="#A6A79C" stroke="#3F4C45" stroke-width="1.5"/>
<polygon points="86,350 79,342 91,336 102,342 98,349" fill="#8E8F86" stroke="#3F4C45" stroke-width="1.5"/>
<polygon points="592,364 600,361 606,364 607,371 596,371" fill="#6E7269" stroke="#3F4C45" stroke-width="1.5"/>
<polygon points="394,368 399,372 399,377 391,377 385,375 383,371 388,367" fill="#A6A79C" stroke="#3F4C45" stroke-width="1.5"/>
<polygon points="479,408 484,419 466,425 456,414 466,406" fill="#8E8F86" stroke="#3F4C45" stroke-width="1.5"/>
<polygon points="592,359 600,356 603,362 600,367 592,364" fill="#6E7269" stroke="#3F4C45" stroke-width="1.5"/>
<polygon points="382,453 388,439 408,439 421,452 400,462" fill="#A6A79C" stroke="#3F4C45" stroke-width="1.5"/>
<polygon points="434,397 438,392 446,394 449,398 447,403 441,404 433,403" fill="#8E8F86" stroke="#3F4C45" stroke-width="1.5"/>
<polygon points="332,422 315,424 305,413 313,402 327,397 339,404 340,414" fill="#6E7269" stroke="#3F4C45" stroke-width="1.5"/>
<polygon points="38,368 46,364 54,363 63,367 57,372 51,376 42,375" fill="#A6A79C" stroke="#3F4C45" stroke-width="1.5"/>
<polygon points="91,382 94,385 93,389 88,391 80,390 79,384 85,381" fill="#8E8F86" stroke="#3F4C45" stroke-width="1.5"/>
<polygon points="406,413 406,421 395,426 385,423 383,416 388,410 397,409" fill="#6E7269" stroke="#3F4C45" stroke-width="1.5"/>
<polygon points="63,438 63,448 48,448 41,438 54,434" fill="#A6A79C" stroke="#3F4C45" stroke-width="1.5"/>
<polygon points="187,377 180,372 184,365 194,366 198,370 198,377" fill="#8E8F86" stroke="#3F4C45" stroke-width="1.5"/>
<polygon points="329,342 337,346 333,353 324,353 321,347" fill="#6E7269" stroke="#3F4C45" stroke-width="1.5"/>
<polygon points="363,365 356,369 346,367 347,360 355,356 364,358" fill="#A6A79C" stroke="#3F4C45" stroke-width="1.5"/>
<polygon points="35,413 32,402 46,394 59,402 70,410 61,421 45,419" fill="#8E8F86" stroke="#3F4C45" stroke-width="1.5"/>
<polygon points="371,424 360,431 349,426 351,418 363,415" fill="#6E7269" stroke="#3F4C45" stroke-width="1.5"/>
<polygon points="577,354 588,356 592,364 589,372 577,372 567,368 570,361" fill="#A6A79C" stroke="#3F4C45" stroke-width="1.5"/>
<polygon points="156,400 166,397 176,399 176,407 167,412 158,408" fill="#8E8F86" stroke="#3F4C45" stroke-width="1.5"/>
<polygon points="599,402 600,394 605,388 615,390 618,397 610,401" fill="#6E7269" stroke="#3F4C45" stroke-width="1.5"/>
<polygon points="517,396 498,400 487,389 494,379 510,373 526,383" fill="#A6A79C" stroke="#3F4C45" stroke-width="1.5"/>
<rect x="410" y="330" width="150" height="90" rx="8" fill="#B4B0A2" stroke="#6E6A5E" stroke-width="2"/>
<text x="485" y="382" font-size="18" fill="#3F4438" text-anchor="middle" font-family="Microsoft JhengHei, sans-serif">邊角料堆置區</text>
</svg>
